<?xml version="1.0" encoding="iso-8859-1"?>
<!-- Generator: Adobe Illustrator 19.0.0, SVG Export Plug-In . SVG Version: 6.00 Build 0)  -->
<svg xmlns="http://www.w3.org/2000/svg" xmlns:xlink="http://www.w3.org/1999/xlink" version="1.1" id="Layer_1" x="0px" y="0px" viewBox="0 0 512 512" style="enable-background:new 0 0 512 512;" xml:space="preserve">
<g>
	<rect x="373.006" y="424.166" style="fill:#1F1A78;" width="69.478" height="78.262"/>
	<rect x="69.51" y="424.166" style="fill:#1F1A78;" width="69.478" height="78.262"/>
</g>
<path style="fill:#495DD9;" d="M453.319,312.869L256,280.372L58.681,312.869v33.991l57.985,27.08l-57.985,27.08v33.981  c0,5.958,4.874,10.832,10.832,10.832h372.973c5.958,0,10.832-4.874,10.832-10.832v-33.981l-57.985-27.08l57.985-27.08V312.869z"/>
<g>
	<path style="fill:#48449E;" d="M453.319,58.313v37.913L256,139.554L58.681,96.225V58.313c0-26.81,21.935-48.745,48.745-48.745   h297.148C431.384,9.568,453.319,31.503,453.319,58.313z"/>
	<path style="fill:#48449E;" d="M11.554,115.542v64.632c0,4.586,3.718,8.305,8.305,8.305h7.706c0.153-0.622,0.242-1.267,0.242-1.937   v-66.941c0-5.732,4.647-10.379,10.379-10.379h52.992V98.211H28.885C19.314,98.211,11.554,105.971,11.554,115.542z"/>
	<path style="fill:#48449E;" d="M422.271,98.933v11.972h48.879c5.732,0,10.379,4.647,10.379,10.379v63.181   c0,4.269,3.461,7.729,7.729,7.729h3.781c0.035,0,0.069,0,0.104,0c5.279-0.026,9.468-4.487,9.468-9.765v-71.58   c0-6.581-5.335-11.915-11.915-11.915H422.271z"/>
</g>
<rect x="58.678" y="96.222" style="fill:#6DB4F5;" width="394.638" height="216.643"/>
<rect x="255.997" y="96.222" style="fill:#85C5FF;" width="197.665" height="216.643"/>
<rect x="58.949" y="96.222" style="fill:#FFFFFF;" width="196.333" height="216.643"/>
<g>
	<path style="fill:#FF7945;" d="M170.827,346.86v27.08c0,14.948-12.121,27.08-27.08,27.08H58.681V346.86H170.827z"/>
	<path style="fill:#FF7945;" d="M453.319,346.86v54.161h-85.065c-14.959,0-27.08-12.132-27.08-27.08v-27.08H453.319z"/>
</g>
<path style="fill:#FFD83D;" d="M401.869,61.021H110.131c-4.488,0-8.124-3.637-8.124-8.124s3.636-8.124,8.124-8.124h291.739  c4.488,0,8.124,3.637,8.124,8.124C409.993,57.383,406.357,61.021,401.869,61.021z"/>
<path d="M418.118,52.897c0-4.487-3.636-8.124-8.124-8.124H102.007c-4.488,0-8.124,3.637-8.124,8.124s3.636,8.124,8.124,8.124  h307.987C414.481,61.021,418.118,57.383,418.118,52.897z"/>
<path d="M308.678,338.731H203.322c-4.488,0-8.124,3.637-8.124,8.124c0,4.487,3.636,8.124,8.124,8.124h105.356  c4.488,0,8.124-3.637,8.124-8.124C316.802,342.368,313.165,338.731,308.678,338.731z"/>
<path d="M489.794,88.101h-28.348V58.313c0-31.358-25.512-56.869-56.869-56.869H107.423c-31.357,0-56.869,25.511-56.869,56.869  v29.788H22.206C9.961,88.101,0,98.063,0,110.307v65.947c0,12.245,9.961,22.206,22.206,22.206h3.975c4.488,0,8.124-3.637,8.124-8.124  c0-4.487-3.636-8.124-8.124-8.124h-3.975c-3.284,0-5.958-2.672-5.958-5.958v-65.947c0-3.285,2.673-5.958,5.958-5.958h28.348v330.652  c0,7.542,4.439,14.051,10.832,17.101v50.33c0,4.487,3.636,8.124,8.124,8.124h69.483c4.488,0,8.124-3.637,8.124-8.124V478.33  c0-4.487-3.636-8.124-8.124-8.124c-4.488,0-8.124,3.637-8.124,8.124v15.977H77.634v-40.35h356.732v40.35h-53.234V478.33  c0-4.487-3.636-8.124-8.124-8.124s-8.124,3.637-8.124,8.124v24.102c0,4.487,3.636,8.124,8.124,8.124h69.482  c4.488,0,8.124-3.637,8.124-8.124v-50.33c6.393-3.05,10.832-9.558,10.832-17.101V104.35h28.348c3.284,0,5.958,2.672,5.958,5.958  v65.947c0,3.285-2.673,5.958-5.958,5.958h-3.975c-4.488,0-8.124,3.637-8.124,8.124c0,4.487,3.636,8.124,8.124,8.124h3.975  c12.245,0,22.206-9.961,22.206-22.206v-65.947C512,98.063,502.039,88.101,489.794,88.101z M66.802,58.313  c0-22.399,18.222-40.621,40.621-40.621h297.155c22.399,0,40.621,18.222,40.621,40.621v29.788H66.802V58.313z M445.198,392.892  h-76.944c-10.452,0-18.956-8.504-18.956-18.956v-18.956h71.528c4.488,0,8.124-3.637,8.124-8.124c0-4.487-3.636-8.124-8.124-8.124  h-79.652c-4.488,0-8.124,3.637-8.124,8.124v27.08c0,19.411,15.792,35.205,35.205,35.205h76.944v25.862  c0,1.468-1.24,2.708-2.708,2.708H69.51c-1.468,0-2.708-1.24-2.708-2.708V409.14h76.944c19.412,0,35.205-15.793,35.205-35.205v-27.08  c0-4.487-3.636-8.124-8.124-8.124H91.174c-4.488,0-8.124,3.637-8.124,8.124c0,4.487,3.636,8.124,8.124,8.124h71.528v18.956  c0,10.452-8.504,18.956-18.956,18.956H66.802V104.35h181.074v200.395H91.174c-4.488,0-8.124,3.637-8.124,8.124  s3.636,8.124,8.124,8.124h329.651c4.488,0,8.124-3.637,8.124-8.124s-3.636-8.124-8.124-8.124H264.124V104.35h181.074  L445.198,392.892L445.198,392.892z"/>
<g>
</g>
<g>
</g>
<g>
</g>
<g>
</g>
<g>
</g>
<g>
</g>
<g>
</g>
<g>
</g>
<g>
</g>
<g>
</g>
<g>
</g>
<g>
</g>
<g>
</g>
<g>
</g>
<g>
</g>
</svg>
